<svg xmlns="http://www.w3.org/2000/svg" viewBox="0 0 392.59 175.22"><defs><style>.cls-1{fill:#22bcc3;}.cls-2{fill:#ea5d5a;}</style></defs><title>Ресурс 2</title><g id="Слой_2" data-name="Слой 2"><g id="Слой_1-2" data-name="Слой 1"><path class="cls-1" d="M1.83,14.31a16.91,16.91,0,0,1,5.27-3.19A19.08,19.08,0,0,1,13.86,10a17.92,17.92,0,0,1,5.52.79A12.72,12.72,0,0,1,23.56,13a9.73,9.73,0,0,1,2.65,3.35,9.69,9.69,0,0,1-1.09,10.15,10.08,10.08,0,0,1-2.24,2.08A12.23,12.23,0,0,1,20.1,30a13.81,13.81,0,0,1,3.51,1.62A11.31,11.31,0,0,1,26.26,34a10.33,10.33,0,0,1,1.68,3,10.21,10.21,0,0,1,.58,3.46,12.73,12.73,0,0,1-1,5,11.59,11.59,0,0,1-2.9,4.08A13.66,13.66,0,0,1,20,52.32a18.61,18.61,0,0,1-6.3,1,22,22,0,0,1-4.27-.39,18.2,18.2,0,0,1-3.65-1.11,16.42,16.42,0,0,1-3.1-1.74A18.68,18.68,0,0,1,0,47.76l.84-1.32A1.06,1.06,0,0,1,1.68,46a1.33,1.33,0,0,1,.75.36l1.11.89q.66.53,1.57,1.14a12.72,12.72,0,0,0,2.16,1.14,16.88,16.88,0,0,0,2.83.88,16.5,16.5,0,0,0,3.63.36,15.57,15.57,0,0,0,5-.75,10.69,10.69,0,0,0,3.72-2.1,9,9,0,0,0,2.31-3.19,10.09,10.09,0,0,0,.79-4A9.4,9.4,0,0,0,24.88,37a8.25,8.25,0,0,0-2.08-3,9.94,9.94,0,0,0-3.37-2,13.34,13.34,0,0,0-4.54-.72H9.3V28.8H15a11.4,11.4,0,0,0,3.51-.54,9,9,0,0,0,3-1.58,7.65,7.65,0,0,0,2-2.52,7.46,7.46,0,0,0,.75-3.4,7.53,7.53,0,0,0-.72-3.3,7.64,7.64,0,0,0-2-2.59,9.42,9.42,0,0,0-3.24-1.7,14.37,14.37,0,0,0-4.29-.6,17.34,17.34,0,0,0-3.24.27,17.05,17.05,0,0,0-2.51.66,10.46,10.46,0,0,0-1.89.87q-.8.48-1.37.87L4,15.9a1.24,1.24,0,0,1-.66.27.89.89,0,0,1-.78-.51Z"/><path class="cls-1" d="M75.66,50.43V62.55a1,1,0,0,1-.28.72,1.07,1.07,0,0,1-.77.27H72.84V52.89h-38v9.66a.94.94,0,0,1-.29.72,1.07,1.07,0,0,1-.76.27H32V50.43h4a6,6,0,0,0,2.11-1.5,11.5,11.5,0,0,0,2-3.06,31.7,31.7,0,0,0,1.75-5,65.62,65.62,0,0,0,1.48-7.29q.66-4.29,1.14-10t.75-13.14H68.28v40Zm-10.47,0V12.9H48.12Q47.7,21.72,47,28.11A103.82,103.82,0,0,1,45.18,39a36.41,36.41,0,0,1-2.31,7.2,15.5,15.5,0,0,1-2.79,4.27Z"/><path class="cls-1" d="M94.38,10.44q7.47,0,11.27,3.27T109.44,23a12.38,12.38,0,0,1-1.05,5.13,11.55,11.55,0,0,1-3,4,14,14,0,0,1-4.74,2.64,19.48,19.48,0,0,1-6.27.94H86.49v17.1H83.4V10.44Zm0,22.89a15.05,15.05,0,0,0,5-.78,11.1,11.1,0,0,0,3.77-2.16,9.4,9.4,0,0,0,2.37-3.25,10.06,10.06,0,0,0,.83-4.1q0-4.89-3-7.53t-9-2.64H86.49V33.33Z"/><path class="cls-1" d="M147.42,52.89H145a1,1,0,0,1-.69-.23,1.48,1.48,0,0,1-.42-.58l-5-12.33H118.11l-5,12.33a1.29,1.29,0,0,1-.42.57,1.11,1.11,0,0,1-.72.24h-2.34L127,10.44h3ZM138,37.47,129.39,16a21.25,21.25,0,0,1-.87-2.52q-.18.72-.39,1.37a12.3,12.3,0,0,1-.45,1.19L119,37.47Z"/><path class="cls-1" d="M166.65,10.44a24.38,24.38,0,0,1,6.3.72,11.93,11.93,0,0,1,4.41,2.11,8.52,8.52,0,0,1,2.58,3.41,11.74,11.74,0,0,1,.84,4.56,9.15,9.15,0,0,1-.58,3.24,10,10,0,0,1-1.68,2.88,10.67,10.67,0,0,1-2.7,2.29,13,13,0,0,1-3.67,1.48,13.53,13.53,0,0,1,7.69,3.31,9.06,9.06,0,0,1,2.69,6.83,11.85,11.85,0,0,1-1,4.86,9.84,9.84,0,0,1-2.79,3.66,12.74,12.74,0,0,1-4.5,2.29,21.23,21.23,0,0,1-6.06.79H154.44V10.44Zm-9.12,2.43V30.3h9.18a14.9,14.9,0,0,0,5-.75,9.94,9.94,0,0,0,3.42-2,7.7,7.7,0,0,0,2-2.79,8.5,8.5,0,0,0,.63-3.21,7.88,7.88,0,0,0-2.71-6.5q-2.72-2.21-8.39-2.21Zm10.65,37.56q5.58,0,8.45-2.42a8.4,8.4,0,0,0,2.86-6.79,8.3,8.3,0,0,0-.76-3.62,7.56,7.56,0,0,0-2.21-2.73A10.27,10.27,0,0,0,173,33.15a17.41,17.41,0,0,0-4.77-.6H157.53V50.43Z"/><path class="cls-1" d="M223,45.75a.7.7,0,0,1,.51.21l1.2,1.29a20.23,20.23,0,0,1-2.86,2.54,17.5,17.5,0,0,1-3.39,1.92,19.94,19.94,0,0,1-4,1.23,25.12,25.12,0,0,1-4.85.44,20.65,20.65,0,0,1-8.08-1.54,18.1,18.1,0,0,1-6.31-4.38,19.81,19.81,0,0,1-4.1-6.85,26.11,26.11,0,0,1-1.46-8.94,24.89,24.89,0,0,1,1.5-8.82A20.26,20.26,0,0,1,195.3,16a18.63,18.63,0,0,1,6.48-4.44A21.48,21.48,0,0,1,210.12,10a20.56,20.56,0,0,1,7.71,1.35,20.81,20.81,0,0,1,6.12,3.81L223,16.47a.84.84,0,0,1-.75.36,2.42,2.42,0,0,1-1.17-.66,15.51,15.51,0,0,0-2.25-1.45,19.13,19.13,0,0,0-3.58-1.46,17.63,17.63,0,0,0-5.15-.66,18.26,18.26,0,0,0-7,1.32,15.52,15.52,0,0,0-5.49,3.78,17.41,17.41,0,0,0-3.58,6,23.1,23.1,0,0,0-1.29,7.95,23.13,23.13,0,0,0,1.31,8,17.55,17.55,0,0,0,3.58,6A15.47,15.47,0,0,0,203,49.43a17.14,17.14,0,0,0,6.71,1.3,24.69,24.69,0,0,0,4.06-.3,15.91,15.91,0,0,0,3.29-.9,14.78,14.78,0,0,0,2.79-1.47,21,21,0,0,0,2.55-2,1.72,1.72,0,0,1,.3-.19A.67.67,0,0,1,223,45.75Z"/><path class="cls-1" d="M260.52,13.05H245.61V52.89h-3.09V13.05h-15V10.44h33Z"/><path class="cls-1" d="M279.87,10.44a24.38,24.38,0,0,1,6.3.72,11.93,11.93,0,0,1,4.41,2.11,8.52,8.52,0,0,1,2.58,3.41,11.74,11.74,0,0,1,.84,4.56,9.15,9.15,0,0,1-.58,3.24,10,10,0,0,1-1.68,2.88,10.67,10.67,0,0,1-2.7,2.29,13,13,0,0,1-3.67,1.48,13.53,13.53,0,0,1,7.69,3.31,9.06,9.06,0,0,1,2.69,6.83,11.85,11.85,0,0,1-1,4.86A9.84,9.84,0,0,1,292,49.8a12.74,12.74,0,0,1-4.5,2.29,21.23,21.23,0,0,1-6.06.79H267.66V10.44Zm-9.12,2.43V30.3h9.18a14.9,14.9,0,0,0,5-.75,9.94,9.94,0,0,0,3.42-2,7.7,7.7,0,0,0,2-2.79,8.5,8.5,0,0,0,.63-3.21,7.88,7.88,0,0,0-2.71-6.5q-2.72-2.21-8.39-2.21ZM281.4,50.43q5.58,0,8.45-2.42a8.4,8.4,0,0,0,2.86-6.79,8.3,8.3,0,0,0-.76-3.62,7.56,7.56,0,0,0-2.21-2.73,10.27,10.27,0,0,0-3.54-1.73,17.41,17.41,0,0,0-4.77-.6H270.75V50.43Z"/><path class="cls-1" d="M334.11,10.44l-17.4,37.38a13.25,13.25,0,0,1-1.48,2.53A7.81,7.81,0,0,1,313.5,52a6.32,6.32,0,0,1-2,.93,9.48,9.48,0,0,1-2.38.28,7,7,0,0,1-1.68-.18q-.72-.18-.72-.51V50.64h1.83a5.63,5.63,0,0,0,3.21-.94,7.42,7.42,0,0,0,2.43-3.14L316.74,41,299.61,10.44h2.85a1.15,1.15,0,0,1,.69.2,1.49,1.49,0,0,1,.45.55l13.23,24.09a16.23,16.23,0,0,1,1.32,3.12q.21-.78.51-1.57a16.67,16.67,0,0,1,.69-1.58l11.07-24.06a1.36,1.36,0,0,1,.44-.54,1.16,1.16,0,0,1,.71-.21Z"/><path class="cls-1" d="M373.8,10.44V52.89h-3.09V18q0-1,0-2c0-.67.09-1.36.17-2.08q-.42.93-.84,1.7t-.84,1.42L344.73,51.93a2.46,2.46,0,0,1-.61.67,1.33,1.33,0,0,1-.83.29H341V10.44h3.09V45.3q0,1,0,1.95t-.15,2q.39-.9.81-1.67t.84-1.42l24.54-34.8a2.63,2.63,0,0,1,.6-.67,1.28,1.28,0,0,1,.81-.29ZM357.3,5.73a5,5,0,0,0,3.9-1.35A6.52,6.52,0,0,0,362.4,0H364a.61.61,0,0,1,.52.29,1.22,1.22,0,0,1,.2.71,5.79,5.79,0,0,1-1.86,4.54Q361,7.2,357.3,7.2a8.2,8.2,0,0,1-5.59-1.67A5.77,5.77,0,0,1,349.83,1,1.16,1.16,0,0,1,350,.29a.64.64,0,0,1,.54-.29h1.59a6.52,6.52,0,0,0,1.2,4.38A5,5,0,0,0,357.3,5.73Z"/><path class="cls-1" d="M384.39,60a.59.59,0,0,1-.2-.24.76.76,0,0,1,0-.27.88.88,0,0,1,.24-.48q.27-.3.73-.88a14.76,14.76,0,0,0,1-1.38A11.93,11.93,0,0,0,387,55a7.79,7.79,0,0,0,.53-2.13,2.94,2.94,0,0,1-.93.15,2.38,2.38,0,0,1-1.81-.75,2.69,2.69,0,0,1-.71-1.92,2.51,2.51,0,0,1,2.61-2.55,2.4,2.4,0,0,1,2,.89,3.62,3.62,0,0,1,.71,2.32,10.42,10.42,0,0,1-.31,2.51,12.64,12.64,0,0,1-.92,2.5,15.61,15.61,0,0,1-3.3,4.47Z"/><path class="cls-1" d="M31.3,124.89H28.66a1.7,1.7,0,0,1-1-.27,3.45,3.45,0,0,1-.81-.87l-14-17.22a10.14,10.14,0,0,0-.82-.95,3.59,3.59,0,0,0-.9-.66,4.13,4.13,0,0,0-1.12-.37,7.93,7.93,0,0,0-1.47-.12H3.1v20.46H0V82.44H3.1V102H8a9.47,9.47,0,0,0,1.37-.09,5,5,0,0,0,1.17-.31,4.1,4.1,0,0,0,1.06-.65,7.73,7.73,0,0,0,1-1.08L26,83.4a2.62,2.62,0,0,1,.72-.69,1.74,1.74,0,0,1,1-.27h2.49l-14.46,18A7.4,7.4,0,0,1,14,102a6.87,6.87,0,0,1-2,.93,5.68,5.68,0,0,1,2.27,1,8.91,8.91,0,0,1,1.78,1.93Z"/><path class="cls-1" d="M67.63,82.44l-17.4,37.38a13.25,13.25,0,0,1-1.48,2.53A7.81,7.81,0,0,1,47,124a6.32,6.32,0,0,1-2,.93,9.48,9.48,0,0,1-2.38.28,7,7,0,0,1-1.68-.18q-.72-.18-.72-.51v-1.92H42a5.63,5.63,0,0,0,3.21-.94,7.42,7.42,0,0,0,2.43-3.14L50.26,113,33.13,82.44H36a1.15,1.15,0,0,1,.69.2,1.49,1.49,0,0,1,.45.55l13.23,24.09a16.23,16.23,0,0,1,1.32,3.12q.21-.78.51-1.57a16.67,16.67,0,0,1,.69-1.58L63.94,83.19a1.36,1.36,0,0,1,.44-.54,1.16,1.16,0,0,1,.71-.21Z"/><path class="cls-1" d="M103.93,117.75a.7.7,0,0,1,.51.21l1.2,1.29a20.23,20.23,0,0,1-2.86,2.54,17.5,17.5,0,0,1-3.39,1.92,19.94,19.94,0,0,1-4,1.23,25.12,25.12,0,0,1-4.85.44,20.65,20.65,0,0,1-8.08-1.54,18.1,18.1,0,0,1-6.31-4.38,19.81,19.81,0,0,1-4.1-6.85,26.11,26.11,0,0,1-1.46-8.94A24.89,24.89,0,0,1,72,94.83,20.26,20.26,0,0,1,76.24,88a18.63,18.63,0,0,1,6.48-4.44A21.48,21.48,0,0,1,91.06,82a20.56,20.56,0,0,1,7.71,1.35,20.81,20.81,0,0,1,6.12,3.81L104,88.47a.84.84,0,0,1-.75.36,2.42,2.42,0,0,1-1.17-.66,15.51,15.51,0,0,0-2.25-1.45,19.13,19.13,0,0,0-3.58-1.46,17.63,17.63,0,0,0-5.15-.66,18.26,18.26,0,0,0-7,1.32,15.52,15.52,0,0,0-5.49,3.78,17.41,17.41,0,0,0-3.58,6,25.28,25.28,0,0,0,0,16,17.55,17.55,0,0,0,3.58,6,15.47,15.47,0,0,0,5.38,3.75,17.14,17.14,0,0,0,6.71,1.3,24.69,24.69,0,0,0,4.06-.3,15.91,15.91,0,0,0,3.29-.9,14.78,14.78,0,0,0,2.79-1.47,21,21,0,0,0,2.55-2,1.72,1.72,0,0,1,.3-.19A.67.67,0,0,1,103.93,117.75Z"/><path class="cls-1" d="M150.85,103.65a25.75,25.75,0,0,1-1.47,8.93,19.78,19.78,0,0,1-4.14,6.84,18.27,18.27,0,0,1-6.41,4.38,22.67,22.67,0,0,1-16.46,0,18.3,18.3,0,0,1-6.39-4.38,19.76,19.76,0,0,1-4.14-6.84,27.73,27.73,0,0,1,0-17.82A19.76,19.76,0,0,1,116,87.92a18.48,18.48,0,0,1,6.39-4.4A21.06,21.06,0,0,1,130.6,82a21.34,21.34,0,0,1,8.23,1.55,18.19,18.19,0,0,1,6.41,4.39,19.94,19.94,0,0,1,4.14,6.86A25.65,25.65,0,0,1,150.85,103.65Zm-3.18,0a24.23,24.23,0,0,0-1.23-8,17.06,17.06,0,0,0-3.48-6,15,15,0,0,0-5.4-3.76,19.13,19.13,0,0,0-13.89,0,15.15,15.15,0,0,0-5.42,3.76,17.11,17.11,0,0,0-3.51,6,26.24,26.24,0,0,0,0,16,17.12,17.12,0,0,0,3.51,6,15,15,0,0,0,5.42,3.75,19.35,19.35,0,0,0,13.89,0,14.84,14.84,0,0,0,5.4-3.75,17.08,17.08,0,0,0,3.48-6A24.19,24.19,0,0,0,147.67,103.65Z"/><path class="cls-1" d="M191.92,124.89h-2.64a1.7,1.7,0,0,1-1-.27,3.45,3.45,0,0,1-.81-.87l-14-17.22a10.14,10.14,0,0,0-.82-.95,3.59,3.59,0,0,0-.9-.66,4.13,4.13,0,0,0-1.12-.37,7.93,7.93,0,0,0-1.47-.12h-5.49v20.46h-3.09V82.44h3.09V102h4.89a9.47,9.47,0,0,0,1.37-.09,5,5,0,0,0,1.17-.31,4.1,4.1,0,0,0,1.06-.65,7.73,7.73,0,0,0,1-1.08l13.32-16.5a2.62,2.62,0,0,1,.72-.69,1.74,1.74,0,0,1,1-.27h2.49l-14.46,18a7.4,7.4,0,0,1-1.65,1.62,6.87,6.87,0,0,1-2,.93,5.68,5.68,0,0,1,2.27,1,8.91,8.91,0,0,1,1.78,1.93Z"/><path class="cls-1" d="M257.26,82.44v42.45h-2.67V88.71a16.06,16.06,0,0,1,.09-1.65L238,116.73a1.31,1.31,0,0,1-1.2.78h-.48a1.31,1.31,0,0,1-1.2-.78L217.93,87q.09.9.09,1.71v36.18h-2.7V82.44h2.13a1.94,1.94,0,0,1,.66.09,1.09,1.09,0,0,1,.48.48l17.13,29.52a12.27,12.27,0,0,1,.78,1.8q.18-.48.39-.94t.45-.89L254,83a1.06,1.06,0,0,1,.5-.48,2.07,2.07,0,0,1,.67-.09Z"/><path class="cls-1" d="M296.14,124.89h-3.09v-19.2h-7.56a8.91,8.91,0,0,0-1.6.14,5.43,5.43,0,0,0-1.46.5,6.61,6.61,0,0,0-1.44,1,12.16,12.16,0,0,0-1.5,1.67l-11.37,14.76a2.65,2.65,0,0,1-.84.83,2.24,2.24,0,0,1-1.2.31H263.8l12.48-16.23a11.77,11.77,0,0,1,2-2.1,9.11,9.11,0,0,1,2.07-1.29,17.08,17.08,0,0,1-5-1.21,10.9,10.9,0,0,1-3.54-2.35,9.47,9.47,0,0,1-2.13-3.39A12.3,12.3,0,0,1,269,94a12.06,12.06,0,0,1,.93-4.84,9.71,9.71,0,0,1,2.73-3.65,12.45,12.45,0,0,1,4.44-2.29,20.93,20.93,0,0,1,6-.8h13Zm-3.09-21.66V84.9h-10q-5.58,0-8.34,2.37A8.41,8.41,0,0,0,272,94a8.57,8.57,0,0,0,2.73,6.84q2.73,2.37,8.34,2.37Z"/><path class="cls-1" d="M339.31,117.75a.7.7,0,0,1,.51.21l1.2,1.29a20.23,20.23,0,0,1-2.86,2.54,17.5,17.5,0,0,1-3.39,1.92,19.94,19.94,0,0,1-4,1.23,25.12,25.12,0,0,1-4.85.44,20.65,20.65,0,0,1-8.08-1.54,18.1,18.1,0,0,1-6.31-4.38,19.81,19.81,0,0,1-4.1-6.85,26.11,26.11,0,0,1-1.46-8.94,24.89,24.89,0,0,1,1.5-8.82,20.26,20.26,0,0,1,4.2-6.85,18.63,18.63,0,0,1,6.48-4.44A21.48,21.48,0,0,1,326.44,82a20.56,20.56,0,0,1,7.71,1.35,20.81,20.81,0,0,1,6.12,3.81l-.93,1.35a.84.84,0,0,1-.75.36,2.42,2.42,0,0,1-1.17-.66,15.51,15.51,0,0,0-2.25-1.45,19.13,19.13,0,0,0-3.58-1.46,17.63,17.63,0,0,0-5.15-.66,18.26,18.26,0,0,0-7,1.32,15.52,15.52,0,0,0-5.49,3.78,17.41,17.41,0,0,0-3.58,6,25.28,25.28,0,0,0,0,16,17.55,17.55,0,0,0,3.58,6,15.47,15.47,0,0,0,5.38,3.75,17.14,17.14,0,0,0,6.71,1.3,24.69,24.69,0,0,0,4.06-.3,15.91,15.91,0,0,0,3.29-.9,14.78,14.78,0,0,0,2.79-1.47,21,21,0,0,0,2.55-2,1.72,1.72,0,0,1,.3-.19A.67.67,0,0,1,339.31,117.75Z"/><path class="cls-1" d="M381.49,124.89h-2.37a1,1,0,0,1-.69-.23,1.49,1.49,0,0,1-.42-.58l-5-12.33H352.18l-5,12.33a1.29,1.29,0,0,1-.42.57,1.11,1.11,0,0,1-.72.24h-2.34l17.37-42.45h3Zm-9.39-15.42L363.46,88a21.25,21.25,0,0,1-.87-2.52q-.18.72-.39,1.37a12.3,12.3,0,0,1-.45,1.19l-8.64,21.42Z"/><path class="cls-1" d="M387,122.58a2.82,2.82,0,0,1,.21-1.08,2.67,2.67,0,0,1,.58-.88,2.94,2.94,0,0,1,.87-.6,2.62,2.62,0,0,1,1.09-.23,2.65,2.65,0,0,1,1.08.23,2.83,2.83,0,0,1,1.49,1.48,2.64,2.64,0,0,1,.22,1.08,2.61,2.61,0,0,1-.22,1.1,3,3,0,0,1-.6.87,2.7,2.7,0,0,1-.89.59,2.82,2.82,0,0,1-1.08.21,2.72,2.72,0,0,1-2.76-2.76Zm4.26-40.14V99.6q0,1.35,0,2.55t-.08,2.45q0,1.25-.13,2.63t-.18,3.06h-1.95q-.09-1.68-.18-3.06t-.13-2.62q0-1.24-.08-2.45t0-2.55V82.44Z"/></g><g id="Слой_2-2" data-name="Слой 2"><path class="cls-2" d="M100.69,159.69,98.81,175H97.47l.85-6.89H95.69a3.65,3.65,0,0,0-.82.08,2.05,2.05,0,0,0-.64.26,2.44,2.44,0,0,0-.5.42,3.93,3.93,0,0,0-.42.57l-2.63,4.08a3.28,3.28,0,0,1-1.24,1.26,3.39,3.39,0,0,1-1.58.35,2.1,2.1,0,0,1-.72-.08.23.23,0,0,1-.17-.27l.09-.75h.52a2.31,2.31,0,0,0,1.12-.27,2.62,2.62,0,0,0,.92-.9l2.45-3.68a3.39,3.39,0,0,1,.73-.82,3,3,0,0,1,1-.52A5.74,5.74,0,0,1,92,167.4a3.64,3.64,0,0,1-1.19-.83,3.08,3.08,0,0,1-.67-1.11,4,4,0,0,1-.21-1.29,4.48,4.48,0,0,1,.3-1.58,4,4,0,0,1,.95-1.44,5,5,0,0,1,1.67-1,6.68,6.68,0,0,1,2.47-.41Zm-1.46,1H95.36a4.74,4.74,0,0,0-1.88.33,3.53,3.53,0,0,0-1.24.85,3.17,3.17,0,0,0-.68,1.14,3.8,3.8,0,0,0-.21,1.21,2.9,2.9,0,0,0,.25,1.21,2.64,2.64,0,0,0,.71.94,3.26,3.26,0,0,0,1.14.61,5.05,5.05,0,0,0,1.54.22h3.43Z"/><path class="cls-2" d="M111.32,175l1.85-15.35h.66a.48.48,0,0,1,.54.55l-.43,4.28a11.46,11.46,0,0,1,2.77-3.7,5.08,5.08,0,0,1,3.31-1.31,3,3,0,0,1,1.48.32,2.22,2.22,0,0,1,.91.95,4.25,4.25,0,0,1,.42,1.53,11.66,11.66,0,0,1,0,2.08,12.07,12.07,0,0,1,1.31-2.15,8.49,8.49,0,0,1,1.51-1.52,6,6,0,0,1,1.62-.91,4.81,4.81,0,0,1,1.65-.3,3.22,3.22,0,0,1,1.65.38,2.54,2.54,0,0,1,1,1.12,4.9,4.9,0,0,1,.42,1.81,13.13,13.13,0,0,1-.1,2.44L130.73,175H129.3l1.15-9.78a12.85,12.85,0,0,0,.12-1.94,4.31,4.31,0,0,0-.25-1.42,1.75,1.75,0,0,0-.68-.87,2.21,2.21,0,0,0-1.21-.29,3.74,3.74,0,0,0-1.53.35,5.62,5.62,0,0,0-1.52,1,8.89,8.89,0,0,0-1.42,1.74,13.44,13.44,0,0,0-1.21,2.46l-1,8.72H120.3l1.15-9.78a15.6,15.6,0,0,0,.14-1.94,4.4,4.4,0,0,0-.2-1.42,1.66,1.66,0,0,0-.64-.87,2.13,2.13,0,0,0-1.19-.29,4.38,4.38,0,0,0-3.24,1.6,14,14,0,0,0-2.61,4.52l-1,8.18Z"/><path class="cls-2" d="M146.65,172.15a14.85,14.85,0,0,1-1.47,1.38,8.22,8.22,0,0,1-1.45.95,6.53,6.53,0,0,1-1.52.55,7.63,7.63,0,0,1-1.68.18,5.73,5.73,0,0,1-2.27-.42,4.53,4.53,0,0,1-1.67-1.2,5.25,5.25,0,0,1-1-1.89,8.25,8.25,0,0,1-.35-2.5,12,12,0,0,1,.23-2.32,11.48,11.48,0,0,1,.68-2.25,10.42,10.42,0,0,1,1.12-2,8.13,8.13,0,0,1,1.53-1.63,7,7,0,0,1,1.91-1.09,6.27,6.27,0,0,1,2.26-.4,5.07,5.07,0,0,1,1.9.32,3.89,3.89,0,0,1,1.26.78,2.89,2.89,0,0,1,.7,1,2.8,2.8,0,0,1,.22,1,4.19,4.19,0,0,1-.17,1.2,3,3,0,0,1-.6,1.08,4.71,4.71,0,0,1-1.17,1,9.29,9.29,0,0,1-1.88.82,22.49,22.49,0,0,1-2.75.68q-1.6.31-3.75.54,0,.31-.05.63t0,.63a5.58,5.58,0,0,0,1,3.58A3.78,3.78,0,0,0,140.8,174a5.62,5.62,0,0,0,1.47-.18,5.49,5.49,0,0,0,1.17-.45,6.3,6.3,0,0,0,.91-.58q.39-.31.7-.58l.53-.45a.68.68,0,0,1,.41-.18.42.42,0,0,1,.32.15Zm-3.77-11.6a4.74,4.74,0,0,0-2.22.52,5.92,5.92,0,0,0-1.75,1.39,8.17,8.17,0,0,0-1.28,2,11,11,0,0,0-.76,2.39q2-.22,3.37-.5a22.52,22.52,0,0,0,2.4-.6,7.69,7.69,0,0,0,1.6-.68,3.74,3.74,0,0,0,.95-.76,2.14,2.14,0,0,0,.45-.81,3.19,3.19,0,0,0,.12-.86,2,2,0,0,0-.15-.7,1.81,1.81,0,0,0-.48-.68,2.76,2.76,0,0,0-.88-.52A3.8,3.8,0,0,0,142.88,160.55Z"/><path class="cls-2" d="M164.26,152.32V153a.62.62,0,0,1-.52.66l-4,.65a9.41,9.41,0,0,0-2.77.84,8.33,8.33,0,0,0-2,1.42,8.18,8.18,0,0,0-1.45,1.84,11.48,11.48,0,0,0-1,2.13,15.74,15.74,0,0,0-.57,2.28q-.2,1.16-.29,2.28a9.05,9.05,0,0,1,1.19-2.24,8.05,8.05,0,0,1,1.65-1.68,7.25,7.25,0,0,1,2-1.06,6.71,6.71,0,0,1,2.21-.37,4.6,4.6,0,0,1,1.78.35,3.88,3.88,0,0,1,1.44,1,5,5,0,0,1,1,1.75,7.77,7.77,0,0,1,.35,2.47,12,12,0,0,1-1,4.66,10.87,10.87,0,0,1-1.15,2,8.47,8.47,0,0,1-1.52,1.64,6.92,6.92,0,0,1-1.86,1.09,5.86,5.86,0,0,1-2.17.4,5.36,5.36,0,0,1-2-.37,4.11,4.11,0,0,1-1.65-1.22,6.23,6.23,0,0,1-1.13-2.26,12.42,12.42,0,0,1-.42-3.47q0-1.31.12-2.82a20.76,20.76,0,0,1,.46-3,17.61,17.61,0,0,1,1-3,10.52,10.52,0,0,1,1.61-2.65,9.23,9.23,0,0,1,2.44-2,10,10,0,0,1,3.42-1.18Zm-6,8.51a5.11,5.11,0,0,0-2.55.66,6.91,6.91,0,0,0-2,1.75,8.44,8.44,0,0,0-1.35,2.5,8.79,8.79,0,0,0-.49,2.91,6.81,6.81,0,0,0,1,4.08,3.31,3.31,0,0,0,2.81,1.37,4.31,4.31,0,0,0,1.72-.35,5.42,5.42,0,0,0,1.49-1,7.18,7.18,0,0,0,1.22-1.45,10.45,10.45,0,0,0,.92-1.78,10.75,10.75,0,0,0,.58-2,11,11,0,0,0,.2-2.08,7.13,7.13,0,0,0-.25-2,4.24,4.24,0,0,0-.72-1.45,3.08,3.08,0,0,0-1.12-.89A3.37,3.37,0,0,0,158.25,160.83Z"/><path class="cls-2" d="M177.64,159.69,175.77,175h-1.34l.85-6.89h-2.63a3.65,3.65,0,0,0-.82.08,2.05,2.05,0,0,0-.64.26,2.44,2.44,0,0,0-.5.42,3.93,3.93,0,0,0-.42.57l-2.63,4.08a3.28,3.28,0,0,1-1.24,1.26,3.39,3.39,0,0,1-1.58.35,2.1,2.1,0,0,1-.72-.08.23.23,0,0,1-.17-.27L164,174h.52a2.31,2.31,0,0,0,1.12-.27,2.62,2.62,0,0,0,.92-.9l2.45-3.68a3.39,3.39,0,0,1,.73-.82,3,3,0,0,1,1-.52,5.74,5.74,0,0,1-1.78-.44,3.64,3.64,0,0,1-1.19-.83,3.08,3.08,0,0,1-.67-1.11,4,4,0,0,1-.21-1.29,4.48,4.48,0,0,1,.3-1.58,4,4,0,0,1,.95-1.44,5,5,0,0,1,1.67-1,6.68,6.68,0,0,1,2.47-.41Zm-1.46,1h-3.86a4.74,4.74,0,0,0-1.88.33,3.53,3.53,0,0,0-1.24.85,3.17,3.17,0,0,0-.68,1.14,3.8,3.8,0,0,0-.21,1.21,2.9,2.9,0,0,0,.25,1.21,2.64,2.64,0,0,0,.71.94,3.26,3.26,0,0,0,1.14.61,5.05,5.05,0,0,0,1.54.22h3.43Z"/><path class="cls-2" d="M197.8,173.69a7.58,7.58,0,0,1-1.43.92,5.29,5.29,0,0,1-1.42.46,9.23,9.23,0,0,1-1.54.12,5.41,5.41,0,0,1-2.3-.45,4.4,4.4,0,0,1-1.62-1.27,5.55,5.55,0,0,1-1-1.94,8.82,8.82,0,0,1-.32-2.45,11.66,11.66,0,0,1,1-4.68,10.26,10.26,0,0,1,1.15-2,8.2,8.2,0,0,1,1.52-1.57,7,7,0,0,1,1.84-1,5.91,5.91,0,0,1,2.12-.38,5.85,5.85,0,0,1,1.36.15,4.76,4.76,0,0,1,1.12.42,4.36,4.36,0,0,1,.92.65,6.22,6.22,0,0,1,.77.86l-.43.51a.41.41,0,0,1-.32.17q-.15,0-.38-.25a4.24,4.24,0,0,0-1.58-1.06,4,4,0,0,0-1.51-.25,4.48,4.48,0,0,0-2.41.69,6.67,6.67,0,0,0-1.94,1.86,9.47,9.47,0,0,0-1.29,2.7,10.82,10.82,0,0,0-.47,3.19,7.72,7.72,0,0,0,.24,2,4.45,4.45,0,0,0,.74,1.57,3.45,3.45,0,0,0,1.25,1,4,4,0,0,0,1.78.37,5.53,5.53,0,0,0,1.46-.18,5.7,5.7,0,0,0,1.15-.44,4.9,4.9,0,0,0,.88-.58l.67-.58.5-.44a.61.61,0,0,1,.38-.18.46.46,0,0,1,.32.15l.32.4A13.23,13.23,0,0,1,197.8,173.69Z"/><path class="cls-2" d="M205,153.09a12.29,12.29,0,0,1,4.24.3,7,7,0,0,1,3.08,1.7,7.53,7.53,0,0,1,1.88,3.13,14.68,14.68,0,0,1,.64,4.59,19.86,19.86,0,0,1-.66,5.41,12.7,12.7,0,0,1-1.75,3.87,7.44,7.44,0,0,1-2.52,2.31,6.15,6.15,0,0,1-3,.77,4.86,4.86,0,0,1-2-.42,4.4,4.4,0,0,1-1.58-1.23,5.79,5.79,0,0,1-1-2,8.88,8.88,0,0,1-.36-2.64,11.55,11.55,0,0,1,.23-2.28,11.4,11.4,0,0,1,.67-2.18,10.21,10.21,0,0,1,1.08-1.94,8,8,0,0,1,1.45-1.57,6.43,6.43,0,0,1,1.81-1,6,6,0,0,1,2.13-.38,5.06,5.06,0,0,1,2.47.58,4.61,4.61,0,0,1,1.75,1.71q-.22-4.11-2.24-6t-6.05-1.69q-.39,0-.31-.37ZM207.19,174a4.49,4.49,0,0,0,2.31-.66,6.12,6.12,0,0,0,2-2,11.68,11.68,0,0,0,1.41-3.46,21,21,0,0,0,.55-5,4.35,4.35,0,0,0-1.52-1.65,4.24,4.24,0,0,0-2.34-.63,4.88,4.88,0,0,0-1.81.33,5.34,5.34,0,0,0-1.52.92,6.6,6.6,0,0,0-1.22,1.38,9.09,9.09,0,0,0-.89,1.72,10.37,10.37,0,0,0-.55,1.95,11.54,11.54,0,0,0-.18,2.05,7.68,7.68,0,0,0,.28,2.21,4.68,4.68,0,0,0,.78,1.58,3.22,3.22,0,0,0,1.18.95A3.57,3.57,0,0,0,207.19,174Z"/><path class="cls-2" d="M229.19,172.15a14.85,14.85,0,0,1-1.47,1.38,8.22,8.22,0,0,1-1.45.95,6.53,6.53,0,0,1-1.52.55,7.63,7.63,0,0,1-1.68.18,5.73,5.73,0,0,1-2.27-.42,4.53,4.53,0,0,1-1.67-1.2,5.25,5.25,0,0,1-1-1.89,8.25,8.25,0,0,1-.35-2.5,12,12,0,0,1,.23-2.32,11.48,11.48,0,0,1,.68-2.25,10.42,10.42,0,0,1,1.12-2,8.13,8.13,0,0,1,1.53-1.63,7,7,0,0,1,1.91-1.09,6.27,6.27,0,0,1,2.26-.4,5.07,5.07,0,0,1,1.9.32,3.89,3.89,0,0,1,1.26.78,2.89,2.89,0,0,1,.7,1,2.8,2.8,0,0,1,.22,1,4.19,4.19,0,0,1-.17,1.2,3,3,0,0,1-.6,1.08,4.71,4.71,0,0,1-1.17,1,9.29,9.29,0,0,1-1.88.82,22.49,22.49,0,0,1-2.75.68q-1.6.31-3.75.54,0,.31-.05.63t0,.63a5.58,5.58,0,0,0,1,3.58,3.78,3.78,0,0,0,3.13,1.29,5.62,5.62,0,0,0,1.47-.18,5.49,5.49,0,0,0,1.17-.45,6.3,6.3,0,0,0,.91-.58q.39-.31.7-.58l.53-.45a.68.68,0,0,1,.41-.18.42.42,0,0,1,.32.15Zm-3.77-11.6a4.74,4.74,0,0,0-2.22.52,5.92,5.92,0,0,0-1.75,1.39,8.17,8.17,0,0,0-1.28,2,11,11,0,0,0-.76,2.39q2-.22,3.37-.5a22.52,22.52,0,0,0,2.4-.6,7.69,7.69,0,0,0,1.6-.68,3.74,3.74,0,0,0,.95-.76,2.14,2.14,0,0,0,.45-.81,3.19,3.19,0,0,0,.12-.86,2,2,0,0,0-.15-.7,1.81,1.81,0,0,0-.48-.68,2.76,2.76,0,0,0-.88-.52A3.8,3.8,0,0,0,225.42,160.55Z"/><path class="cls-2" d="M235.22,166.95a18.92,18.92,0,0,1,1.19-3.35,7.29,7.29,0,0,1,1.62-2.25,5.77,5.77,0,0,1,2.26-1.26,11,11,0,0,1,3.12-.39h1.86L243.4,175H242l1.72-14.18h-.58a8,8,0,0,0-2.44.33,4.46,4.46,0,0,0-1.78,1.07,6.44,6.44,0,0,0-1.3,1.92,18.25,18.25,0,0,0-1,2.88,39,39,0,0,1-1.16,3.87,12.06,12.06,0,0,1-1.22,2.52,4.13,4.13,0,0,1-1.39,1.37,3.43,3.43,0,0,1-1.67.41,1.79,1.79,0,0,1-.65-.08.26.26,0,0,1-.18-.27l.11-.8H231a2.27,2.27,0,0,0,1.32-.39,3.68,3.68,0,0,0,1.05-1.25,12.51,12.51,0,0,0,.93-2.19Q234.71,168.86,235.22,166.95Z"/><path class="cls-2" d="M258.07,169.67a16.56,16.56,0,0,1-1.28,2.25,9.79,9.79,0,0,1-1.5,1.75,6.56,6.56,0,0,1-1.68,1.12,4.33,4.33,0,0,1-1.82.4,3.62,3.62,0,0,1-1.68-.38,3.33,3.33,0,0,1-1.22-1.07,5,5,0,0,1-.73-1.68,9.15,9.15,0,0,1-.25-2.22,10,10,0,0,1,.35-2.62,11.57,11.57,0,0,1,1-2.44,10.89,10.89,0,0,1,1.48-2.12,10.16,10.16,0,0,1,1.91-1.68,9.23,9.23,0,0,1,2.23-1.11,7.59,7.59,0,0,1,2.45-.4,8.75,8.75,0,0,1,1.71.16,5.93,5.93,0,0,1,1.58.56L258.78,175h-.71a.45.45,0,0,1-.42-.17.69.69,0,0,1-.11-.38Zm1-8.78a4.65,4.65,0,0,0-1-.24,7.22,7.22,0,0,0-1-.07,6.11,6.11,0,0,0-2.94.75,8.41,8.41,0,0,0-2.46,2,10.12,10.12,0,0,0-1.69,2.89,9.3,9.3,0,0,0-.63,3.38,6.16,6.16,0,0,0,.7,3.21,2.37,2.37,0,0,0,2.18,1.15,3.39,3.39,0,0,0,1.72-.49,6.55,6.55,0,0,0,1.62-1.38,11.81,11.81,0,0,0,1.45-2.15,19.62,19.62,0,0,0,1.21-2.78Z"/><path class="cls-2" d="M269.73,166.79a11.88,11.88,0,0,1,.86-2.86,8.9,8.9,0,0,1,1.49-2.33,7,7,0,0,1,2-1.57,5.32,5.32,0,0,1,2.45-.58,4.73,4.73,0,0,1,2,.43,4.5,4.5,0,0,1,1.57,1.22,5.61,5.61,0,0,1,1,1.94,8.72,8.72,0,0,1,.35,2.58,12.32,12.32,0,0,1-.52,3.6,10.47,10.47,0,0,1-1.47,3.05,7.6,7.6,0,0,1-2.25,2.12,5.38,5.38,0,0,1-2.85.79,4.71,4.71,0,0,1-2-.42,4.25,4.25,0,0,1-1.55-1.22,5.73,5.73,0,0,1-1-2,9,9,0,0,1-.35-2.6q0-.58,0-1.14h-3.85l-.88,7.14h-1.42l1.88-15.31h1.43l-.88,7.11Zm4.88,7.25a3.78,3.78,0,0,0,2.24-.72,6.28,6.28,0,0,0,1.72-1.89,9.93,9.93,0,0,0,1.11-2.69,12.36,12.36,0,0,0,.39-3.11,6.1,6.1,0,0,0-1-3.7,3.18,3.18,0,0,0-2.71-1.3,3.8,3.8,0,0,0-2.23.7,6.24,6.24,0,0,0-1.72,1.87,9.68,9.68,0,0,0-1.12,2.68,12.41,12.41,0,0,0-.39,3.14,6.33,6.33,0,0,0,1,3.71A3.14,3.14,0,0,0,274.61,174Z"/><path class="cls-2" d="M284.28,173.81a1.44,1.44,0,0,1,.11-.55,1.36,1.36,0,0,1,.3-.45,1.5,1.5,0,0,1,.45-.31,1.33,1.33,0,0,1,.56-.12,1.35,1.35,0,0,1,.55.12,1.45,1.45,0,0,1,.76.76,1.36,1.36,0,0,1,.12.55,1.34,1.34,0,0,1-.12.56,1.52,1.52,0,0,1-.31.45,1.37,1.37,0,0,1-.45.3,1.44,1.44,0,0,1-.55.11,1.39,1.39,0,0,1-1.42-1.42Z"/><path class="cls-2" d="M291.34,173.81a1.44,1.44,0,0,1,.11-.55,1.36,1.36,0,0,1,.3-.45,1.5,1.5,0,0,1,.45-.31,1.33,1.33,0,0,1,.56-.12,1.35,1.35,0,0,1,.55.12,1.45,1.45,0,0,1,.76.76,1.36,1.36,0,0,1,.12.55,1.34,1.34,0,0,1-.12.56,1.52,1.52,0,0,1-.31.45,1.37,1.37,0,0,1-.45.3,1.44,1.44,0,0,1-.55.11,1.39,1.39,0,0,1-1.42-1.42Z"/><path class="cls-2" d="M298.4,173.81a1.44,1.44,0,0,1,.11-.55,1.36,1.36,0,0,1,.3-.45,1.5,1.5,0,0,1,.45-.31,1.33,1.33,0,0,1,.56-.12,1.35,1.35,0,0,1,.55.12,1.45,1.45,0,0,1,.76.76,1.36,1.36,0,0,1,.12.55,1.34,1.34,0,0,1-.12.56,1.52,1.52,0,0,1-.31.45,1.37,1.37,0,0,1-.45.3,1.44,1.44,0,0,1-.55.11,1.39,1.39,0,0,1-1.42-1.42Z"/></g></g></svg>